
<svg width="32" height="32" viewBox="0 0 32 32" fill="none" xmlns="http://www.w3.org/2000/svg">
  <!-- Background circle -->
  <circle cx="16" cy="16" r="15" fill="#FFFFFF" stroke="#0055A4" stroke-width="2"/>
  
  <!-- KSRTC text -->
  <path d="M8 13v6m0-3l2-2m-2 2l2 2" stroke="#0055A4" stroke-width="1.5" stroke-linecap="round" stroke-linejoin="round"/>
  <path d="M13 13c0 0 2 0 2.5 1s0 2-0.5 3-2 1-2 1v2" stroke="#0055A4" stroke-width="1.5" stroke-linecap="round" stroke-linejoin="round"/>
  <path d="M18 13v6m-2-6h4m-4 3h4" stroke="#0055A4" stroke-width="1.5" stroke-linecap="round" stroke-linejoin="round"/>
  <path d="M23 13v6m0-6l2 3l-2 3" stroke="#0055A4" stroke-width="1.5" stroke-linecap="round" stroke-linejoin="round"/>
  
  <!-- Bus silhouette -->
  <path d="M10 22h12m-10 1h-1v1h1v-1m8 0h1v1h-1v-1" stroke="#0055A4" stroke-width="1" fill="none"/>
</svg>
