<?xml version="1.0" encoding="UTF-8"?>
<svg width="200" height="200" viewBox="0 0 200 200" fill="none" xmlns="http://www.w3.org/2000/svg">
  <!-- Background circle -->
  <circle cx="100" cy="100" r="95" fill="#FFFFFF" stroke="#0055A4" stroke-width="3"/>
  
  <!-- KSRTC text -->
  <path d="M38 80 L38 120 M38 100 L55 80 M38 100 L55 120" stroke="#0055A4" stroke-width="6" stroke-linecap="round" stroke-linejoin="round"/>
  <path d="M65 80 C65 80, 75 80, 80 85 C85 90, 85 95, 80 100 C75 105, 65 105, 65 105 L65 120" stroke="#0055A4" stroke-width="6" stroke-linecap="round" stroke-linejoin="round"/>
  <path d="M95 80 L95 120 M85 80 L105 80 M85 100 L105 100" stroke="#0055A4" stroke-width="6" stroke-linecap="round" stroke-linejoin="round"/>
  <path d="M115 80 L115 120 M115 80 L130 100 L115 120" stroke="#0055A4" stroke-width="6" stroke-linecap="round" stroke-linejoin="round"/>
  <path d="M140 80 C140 80, 150 80, 155 85 C160 90, 160 95, 155 100 C150 105, 140 105, 140 105 L140 120" stroke="#0055A4" stroke-width="6" stroke-linecap="round" stroke-linejoin="round"/>
  
  <!-- Bus silhouette -->
  <path d="M50 140 L50 150 L60 150 L60 140 M140 140 L140 150 L150 150 L150 140" stroke="#0055A4" stroke-width="3" fill="none"/>
  <rect x="40" y="130" width="120" height="20" rx="5" stroke="#0055A4" stroke-width="3" fill="#FFFFFF"/>
  <rect x="50" y="135" width="100" height="10" rx="2" stroke="#0055A4" stroke-width="1" fill="none"/>
</svg>